<?xml version="1.0" encoding="UTF-8" standalone="no"?><svg xmlns="http://www.w3.org/2000/svg" id="icone" viewBox="0 0 512 512"><title>sun</title><path d="M372 256a116 116 0 0 1-232 0 117.3 117.3 0 0 1 1-15.18 10 10 0 1 1 19.83 2.6A97.41 97.41 0 0 0 160 256a96 96 0 1 0 17.73-55.57 10 10 0 1 1-16.3-11.59A116 116 0 0 1 372 256zm-223.74-43l-.16.39c-.13.31-.25.61-.37.92a10 10 0 1 0 18.66 7.2l.18-.45.27-.66a10 10 0 1 0-18.58-7.4zM256 133a10 10 0 0 0 10-10V64a10 10 0 0 0-20 0v59a10 10 0 0 0 10 10zm0 246a10 10 0 0 0-10 10v59a10 10 0 0 0 20 0v-59a10 10 0 0 0-10-10zM154.88 169A10 10 0 1 0 169 154.88l-41.72-41.72a10 10 0 0 0-14.14 14.14zm202.24 174A10 10 0 1 0 343 357.11l41.72 41.72a10 10 0 1 0 14.14-14.14zM133 256a10 10 0 0 0-10-10H64a10 10 0 0 0 0 20h59a10 10 0 0 0 10-10zm315-10h-59a10 10 0 0 0 0 20h59a10 10 0 1 0 0-20zm-293.12 97l-41.72 41.72a10 10 0 1 0 14.14 14.14l41.7-41.75A10 10 0 1 0 154.88 343zM350 172a10 10 0 0 0 7.07-2.93l41.72-41.72a10 10 0 0 0-14.14-14.14L343 154.88a10 10 0 0 0 7 17.12z" fill="#02005c"/><path d="M256 352a96 96 0 0 0 50.72-177.47 106.06 106.06 0 0 0-132.19 132.19A96 96 0 0 0 256 352z" fill="#f7ad1e"/><metadata><rdf:RDF xmlns:rdf="http://www.w3.org/1999/02/22-rdf-syntax-ns#" xmlns:rdfs="http://www.w3.org/2000/01/rdf-schema#" xmlns:dc="http://purl.org/dc/elements/1.1/"><rdf:Description about="https://iconscout.com/legal#licenses" dc:title="sun" dc:description="sun" dc:publisher="Iconscout" dc:date="2017-09-07" dc:format="image/svg+xml" dc:language="en"><dc:creator><rdf:Bag><rdf:li>Paolo Valzania</rdf:li></rdf:Bag></dc:creator></rdf:Description></rdf:RDF></metadata></svg>